<svg xmlns="http://www.w3.org/2000/svg" viewBox="0 0 400 270" role="img" aria-label="Self empowerment circle" class="dg"><text x="200.0" y="16.0" class="dg-text" text-anchor="middle" style="font-size:12px;font-weight:700" ><tspan x="200.0" dy="0.0">CIRCLE OF SELF EMPOWERMENT (concept)</tspan></text><path d="M203.2,58.1 A92.0,92.0 0 0 1 291.9,146.8 L240.0,148.6 A40.0,40.0 0 0 0 201.4,110.0 Z" class="dg-line-2 dg-fill-2" /><text x="246.7" y="106.3" class="dg-text" text-anchor="middle" style="font-size:8px" ><tspan x="246.7" dy="-4.5">shift brain</tspan><tspan x="246.7" dy="9.0">state</tspan></text><path d="M291.9,153.2 A92.0,92.0 0 0 1 203.2,241.9 L201.4,190.0 A40.0,40.0 0 0 0 240.0,151.4 Z" class="dg-line-2 dg-fill" /><text x="246.7" y="199.7" class="dg-text" text-anchor="middle" style="font-size:8px" ><tspan x="246.7" dy="-4.5">raise</tspan><tspan x="246.7" dy="9.0">frequency</tspan></text><path d="M196.8,241.9 A92.0,92.0 0 0 1 108.1,153.2 L160.0,151.4 A40.0,40.0 0 0 0 198.6,190.0 Z" class="dg-line-2 dg-fill-2" /><text x="153.3" y="199.7" class="dg-text" text-anchor="middle" style="font-size:8px" ><tspan x="153.3" dy="-9.0">align with</tspan><tspan x="153.3" dy="9.0">the natural</tspan><tspan x="153.3" dy="9.0">self</tspan></text><path d="M108.1,146.8 A92.0,92.0 0 0 1 196.8,58.1 L198.6,110.0 A40.0,40.0 0 0 0 160.0,148.6 Z" class="dg-line-2 dg-fill" /><text x="153.3" y="106.3" class="dg-text" text-anchor="middle" style="font-size:8px" ><tspan x="153.3" dy="-4.5">act from</tspan><tspan x="153.3" dy="9.0">empowerment</tspan></text><text x="200.0" y="154.0" class="dg-text" text-anchor="middle" style="font-size:11px;font-weight:700" ><tspan x="200.0" dy="0.0">you</tspan></text><text x="200.0" y="262.0" class="dg-muted" text-anchor="middle" style="font-size:9.5px;font-style:italic" ><tspan x="200.0" dy="-5.7">Only the name confirms a circle; segment contents of the 2017 &quot;birthday gift&quot;</tspan><tspan x="200.0" dy="11.4">handout are unverified.</tspan></text></svg>