<svg xmlns="http://www.w3.org/2000/svg" viewBox="0 0 400 268" role="img" aria-label="Frames of film model of parallel realities" class="dg"><text x="200.0" y="16.0" class="dg-text" text-anchor="middle" style="font-size:11.5px;font-weight:700" ><tspan x="200.0" dy="0.0">PARALLEL REALITIES — shifting through static &quot;frames&quot;</tspan></text><rect x="12.0" y="40.0" width="48.0" height="40.0" rx="2" class="dg-line" /><rect x="15.0" y="34.0" width="6.0" height="4.0" rx="1" class="dg-line-2" /><rect x="15.0" y="82.0" width="6.0" height="4.0" rx="1" class="dg-line-2" /><rect x="26.5" y="34.0" width="6.0" height="4.0" rx="1" class="dg-line-2" /><rect x="26.5" y="82.0" width="6.0" height="4.0" rx="1" class="dg-line-2" /><rect x="38.0" y="34.0" width="6.0" height="4.0" rx="1" class="dg-line-2" /><rect x="38.0" y="82.0" width="6.0" height="4.0" rx="1" class="dg-line-2" /><rect x="49.5" y="34.0" width="6.0" height="4.0" rx="1" class="dg-line-2" /><rect x="49.5" y="82.0" width="6.0" height="4.0" rx="1" class="dg-line-2" /><circle cx="26.0" cy="60.0" r="5.0" class="dg-line-2" /><rect x="66.0" y="40.0" width="48.0" height="40.0" rx="2" class="dg-line" /><rect x="69.0" y="34.0" width="6.0" height="4.0" rx="1" class="dg-line-2" /><rect x="69.0" y="82.0" width="6.0" height="4.0" rx="1" class="dg-line-2" /><rect x="80.5" y="34.0" width="6.0" height="4.0" rx="1" class="dg-line-2" /><rect x="80.5" y="82.0" width="6.0" height="4.0" rx="1" class="dg-line-2" /><rect x="92.0" y="34.0" width="6.0" height="4.0" rx="1" class="dg-line-2" /><rect x="92.0" y="82.0" width="6.0" height="4.0" rx="1" class="dg-line-2" /><rect x="103.5" y="34.0" width="6.0" height="4.0" rx="1" class="dg-line-2" /><rect x="103.5" y="82.0" width="6.0" height="4.0" rx="1" class="dg-line-2" /><circle cx="83.0" cy="60.0" r="5.6" class="dg-line-2" /><rect x="120.0" y="40.0" width="48.0" height="40.0" rx="2" class="dg-line" /><rect x="123.0" y="34.0" width="6.0" height="4.0" rx="1" class="dg-line-2" /><rect x="123.0" y="82.0" width="6.0" height="4.0" rx="1" class="dg-line-2" /><rect x="134.5" y="34.0" width="6.0" height="4.0" rx="1" class="dg-line-2" /><rect x="134.5" y="82.0" width="6.0" height="4.0" rx="1" class="dg-line-2" /><rect x="146.0" y="34.0" width="6.0" height="4.0" rx="1" class="dg-line-2" /><rect x="146.0" y="82.0" width="6.0" height="4.0" rx="1" class="dg-line-2" /><rect x="157.5" y="34.0" width="6.0" height="4.0" rx="1" class="dg-line-2" /><rect x="157.5" y="82.0" width="6.0" height="4.0" rx="1" class="dg-line-2" /><circle cx="140.0" cy="60.0" r="6.2" class="dg-line-2" /><rect x="174.0" y="40.0" width="48.0" height="40.0" rx="2" class="dg-line" /><rect x="177.0" y="34.0" width="6.0" height="4.0" rx="1" class="dg-line-2" /><rect x="177.0" y="82.0" width="6.0" height="4.0" rx="1" class="dg-line-2" /><rect x="188.5" y="34.0" width="6.0" height="4.0" rx="1" class="dg-line-2" /><rect x="188.5" y="82.0" width="6.0" height="4.0" rx="1" class="dg-line-2" /><rect x="200.0" y="34.0" width="6.0" height="4.0" rx="1" class="dg-line-2" /><rect x="200.0" y="82.0" width="6.0" height="4.0" rx="1" class="dg-line-2" /><rect x="211.5" y="34.0" width="6.0" height="4.0" rx="1" class="dg-line-2" /><rect x="211.5" y="82.0" width="6.0" height="4.0" rx="1" class="dg-line-2" /><circle cx="197.0" cy="60.0" r="6.8" class="dg-line-2" /><rect x="228.0" y="40.0" width="48.0" height="40.0" rx="2" class="dg-line" /><rect x="231.0" y="34.0" width="6.0" height="4.0" rx="1" class="dg-line-2" /><rect x="231.0" y="82.0" width="6.0" height="4.0" rx="1" class="dg-line-2" /><rect x="242.5" y="34.0" width="6.0" height="4.0" rx="1" class="dg-line-2" /><rect x="242.5" y="82.0" width="6.0" height="4.0" rx="1" class="dg-line-2" /><rect x="254.0" y="34.0" width="6.0" height="4.0" rx="1" class="dg-line-2" /><rect x="254.0" y="82.0" width="6.0" height="4.0" rx="1" class="dg-line-2" /><rect x="265.5" y="34.0" width="6.0" height="4.0" rx="1" class="dg-line-2" /><rect x="265.5" y="82.0" width="6.0" height="4.0" rx="1" class="dg-line-2" /><circle cx="254.0" cy="60.0" r="7.4" class="dg-line-2" /><rect x="282.0" y="40.0" width="48.0" height="40.0" rx="2" class="dg-line" /><rect x="285.0" y="34.0" width="6.0" height="4.0" rx="1" class="dg-line-2" /><rect x="285.0" y="82.0" width="6.0" height="4.0" rx="1" class="dg-line-2" /><rect x="296.5" y="34.0" width="6.0" height="4.0" rx="1" class="dg-line-2" /><rect x="296.5" y="82.0" width="6.0" height="4.0" rx="1" class="dg-line-2" /><rect x="308.0" y="34.0" width="6.0" height="4.0" rx="1" class="dg-line-2" /><rect x="308.0" y="82.0" width="6.0" height="4.0" rx="1" class="dg-line-2" /><rect x="319.5" y="34.0" width="6.0" height="4.0" rx="1" class="dg-line-2" /><rect x="319.5" y="82.0" width="6.0" height="4.0" rx="1" class="dg-line-2" /><circle cx="311.0" cy="60.0" r="8.0" class="dg-line-2" /><rect x="336.0" y="40.0" width="48.0" height="40.0" rx="2" class="dg-line" /><rect x="339.0" y="34.0" width="6.0" height="4.0" rx="1" class="dg-line-2" /><rect x="339.0" y="82.0" width="6.0" height="4.0" rx="1" class="dg-line-2" /><rect x="350.5" y="34.0" width="6.0" height="4.0" rx="1" class="dg-line-2" /><rect x="350.5" y="82.0" width="6.0" height="4.0" rx="1" class="dg-line-2" /><rect x="362.0" y="34.0" width="6.0" height="4.0" rx="1" class="dg-line-2" /><rect x="362.0" y="82.0" width="6.0" height="4.0" rx="1" class="dg-line-2" /><rect x="373.5" y="34.0" width="6.0" height="4.0" rx="1" class="dg-line-2" /><rect x="373.5" y="82.0" width="6.0" height="4.0" rx="1" class="dg-line-2" /><circle cx="368.0" cy="60.0" r="8.6" class="dg-line-2" /><circle cx="36.0" cy="60.0" r="4.0" class="dg-accent-fill" /><path d="M40,58 Q63,40 90,58 Q117,40 144,58 Q171,40 198,58" class="dg-accent" marker-end="url(#dg-arrow)"/><text x="200.0" y="104.0" class="dg-text" text-anchor="middle" style="font-size:9px" ><tspan x="200.0" dy="-5.4">each frame is a complete, static reality; consciousness &quot;hops&quot; between them</tspan><tspan x="200.0" dy="10.8">~billions of times per second, producing the feeling of motion and time</tspan></text><path d="M60,190 Q120,190 180,156 L380,156" class="dg-line-2" /><rect x="190.0" y="148.0" width="26.0" height="16.0" rx="2" class="dg-line-2" /><rect x="222.0" y="148.0" width="26.0" height="16.0" rx="2" class="dg-line-2" /><rect x="254.0" y="148.0" width="26.0" height="16.0" rx="2" class="dg-line-2" /><rect x="286.0" y="148.0" width="26.0" height="16.0" rx="2" class="dg-line-2" /><rect x="318.0" y="148.0" width="26.0" height="16.0" rx="2" class="dg-line-2" /><rect x="350.0" y="148.0" width="26.0" height="16.0" rx="2" class="dg-line-2" /><text x="382.0" y="145.0" class="dg-muted" text-anchor="end" style="font-size:7.5px" ><tspan x="382.0" dy="0.0">reality A</tspan></text><path d="M60,190 Q120,190 180,190 L380,190" class="dg-line" /><rect x="190.0" y="182.0" width="26.0" height="16.0" rx="2" class="dg-line dg-fill" /><rect x="222.0" y="182.0" width="26.0" height="16.0" rx="2" class="dg-line dg-fill" /><rect x="254.0" y="182.0" width="26.0" height="16.0" rx="2" class="dg-line dg-fill" /><rect x="286.0" y="182.0" width="26.0" height="16.0" rx="2" class="dg-line dg-fill" /><rect x="318.0" y="182.0" width="26.0" height="16.0" rx="2" class="dg-line dg-fill" /><rect x="350.0" y="182.0" width="26.0" height="16.0" rx="2" class="dg-line dg-fill" /><text x="382.0" y="179.0" class="dg-muted" text-anchor="end" style="font-size:7.5px" ><tspan x="382.0" dy="0.0">reality B (chosen by your state of being)</tspan></text><path d="M60,190 Q120,190 180,224 L380,224" class="dg-line-2" /><rect x="190.0" y="216.0" width="26.0" height="16.0" rx="2" class="dg-line-2" /><rect x="222.0" y="216.0" width="26.0" height="16.0" rx="2" class="dg-line-2" /><rect x="254.0" y="216.0" width="26.0" height="16.0" rx="2" class="dg-line-2" /><rect x="286.0" y="216.0" width="26.0" height="16.0" rx="2" class="dg-line-2" /><rect x="318.0" y="216.0" width="26.0" height="16.0" rx="2" class="dg-line-2" /><rect x="350.0" y="216.0" width="26.0" height="16.0" rx="2" class="dg-line-2" /><text x="382.0" y="213.0" class="dg-muted" text-anchor="end" style="font-size:7.5px" ><tspan x="382.0" dy="0.0">reality C</tspan></text><circle cx="60.0" cy="190.0" r="5.0" class="dg-accent-fill" /><text x="40.0" y="194.0" class="dg-text" text-anchor="end" style="font-size:9px" ><tspan x="40.0" dy="0.0">now</tspan></text><text x="200.0" y="260.0" class="dg-muted" text-anchor="middle" style="font-size:9.5px;font-style:italic" ><tspan x="200.0" dy="-5.7">&quot;You don&#x27;t change the world you are on — you shift to a version that reflects</tspan><tspan x="200.0" dy="11.4">the change in you.&quot;</tspan></text></svg>