<svg xmlns="http://www.w3.org/2000/svg" viewBox="0 0 400 276" role="img" aria-label="Sacred Circuitry card grid" class="dg"><text x="200.0" y="16.0" class="dg-text" text-anchor="middle" style="font-size:12px;font-weight:700" ><tspan x="200.0" dy="0.0">SACRED CIRCUITRY — 15 glyph cards</tspan></text><rect x="30.0" y="34.0" width="60.0" height="52.0" rx="5" class="dg-line dg-fill" /><text x="60.0" y="64.0" class="dg-muted" text-anchor="middle" style="font-size:16px" ><tspan x="60.0" dy="0.0">1</tspan></text><rect x="100.0" y="34.0" width="60.0" height="52.0" rx="5" class="dg-line dg-fill" /><text x="130.0" y="64.0" class="dg-muted" text-anchor="middle" style="font-size:16px" ><tspan x="130.0" dy="0.0">2</tspan></text><rect x="170.0" y="34.0" width="60.0" height="52.0" rx="5" class="dg-line dg-fill" /><text x="200.0" y="64.0" class="dg-muted" text-anchor="middle" style="font-size:16px" ><tspan x="200.0" dy="0.0">3</tspan></text><rect x="240.0" y="34.0" width="60.0" height="52.0" rx="5" class="dg-line dg-fill" /><text x="270.0" y="64.0" class="dg-muted" text-anchor="middle" style="font-size:16px" ><tspan x="270.0" dy="0.0">4</tspan></text><rect x="310.0" y="34.0" width="60.0" height="52.0" rx="5" class="dg-line dg-fill" /><text x="340.0" y="64.0" class="dg-muted" text-anchor="middle" style="font-size:16px" ><tspan x="340.0" dy="0.0">5</tspan></text><rect x="30.0" y="96.0" width="60.0" height="52.0" rx="5" class="dg-line dg-fill" /><text x="60.0" y="126.0" class="dg-muted" text-anchor="middle" style="font-size:16px" ><tspan x="60.0" dy="0.0">6</tspan></text><rect x="100.0" y="96.0" width="60.0" height="52.0" rx="5" class="dg-line dg-fill" /><text x="130.0" y="126.0" class="dg-muted" text-anchor="middle" style="font-size:16px" ><tspan x="130.0" dy="0.0">7</tspan></text><rect x="170.0" y="96.0" width="60.0" height="52.0" rx="5" class="dg-line dg-fill" /><text x="200.0" y="126.0" class="dg-muted" text-anchor="middle" style="font-size:16px" ><tspan x="200.0" dy="0.0">8</tspan></text><rect x="240.0" y="96.0" width="60.0" height="52.0" rx="5" class="dg-line dg-fill" /><text x="270.0" y="126.0" class="dg-muted" text-anchor="middle" style="font-size:16px" ><tspan x="270.0" dy="0.0">9</tspan></text><rect x="310.0" y="96.0" width="60.0" height="52.0" rx="5" class="dg-line dg-fill" /><text x="340.0" y="126.0" class="dg-muted" text-anchor="middle" style="font-size:16px" ><tspan x="340.0" dy="0.0">10</tspan></text><rect x="30.0" y="158.0" width="60.0" height="52.0" rx="5" class="dg-line dg-fill" /><text x="60.0" y="188.0" class="dg-muted" text-anchor="middle" style="font-size:16px" ><tspan x="60.0" dy="0.0">11</tspan></text><rect x="100.0" y="158.0" width="60.0" height="52.0" rx="5" class="dg-line dg-fill" /><text x="130.0" y="188.0" class="dg-muted" text-anchor="middle" style="font-size:16px" ><tspan x="130.0" dy="0.0">12</tspan></text><rect x="170.0" y="158.0" width="60.0" height="52.0" rx="5" class="dg-line dg-fill" /><text x="200.0" y="188.0" class="dg-muted" text-anchor="middle" style="font-size:16px" ><tspan x="200.0" dy="0.0">13</tspan></text><rect x="240.0" y="158.0" width="60.0" height="52.0" rx="5" class="dg-line dg-fill" /><text x="270.0" y="188.0" class="dg-muted" text-anchor="middle" style="font-size:16px" ><tspan x="270.0" dy="0.0">14</tspan></text><rect x="310.0" y="158.0" width="60.0" height="52.0" rx="5" class="dg-line dg-fill" /><text x="340.0" y="188.0" class="dg-muted" text-anchor="middle" style="font-size:16px" ><tspan x="340.0" dy="0.0">15</tspan></text><text x="200.0" y="236.0" class="dg-text" text-anchor="middle" style="font-size:9.5px" ><tspan x="200.0" dy="-5.7">Days 1–3: cards 1→15 in order, ~1 min each · from day 4: any order, ≤15 min,</tspan><tspan x="200.0" dy="11.4">once a day</tspan></text><text x="200.0" y="268.0" class="dg-muted" text-anchor="middle" style="font-size:9.5px;font-style:italic" ><tspan x="200.0" dy="-5.7">The glyph artwork is copyrighted and not reproduced; only the card count and</tspan><tspan x="200.0" dy="11.4">viewing protocol are shown.</tspan></text></svg>